<?xml version="1.0" standalone="no"?>
<!DOCTYPE svg PUBLIC "-//W3C//DTD SVG 20010904//EN"
 "http://www.w3.org/TR/2001/REC-SVG-20010904/DTD/svg10.dtd">
<svg version="1.0" xmlns="http://www.w3.org/2000/svg"
 width="512.000000pt" height="512.000000pt" viewBox="0 0 512.000000 512.000000"
 preserveAspectRatio="xMidYMid meet">
<metadata>
Created by potrace 1.11, written by Peter Selinger 2001-2013
</metadata>
<g transform="translate(0.000000,512.000000) scale(0.100000,-0.100000)"
fill="#000000" stroke="none">
<path d="M2375 4884 c-16 -2 -70 -9 -120 -15 -231 -28 -490 -106 -721 -219
-615 -302 -1072 -868 -1235 -1534 -47 -194 -62 -328 -63 -551 -1 -284 29 -479
116 -743 252 -768 904 -1361 1692 -1536 238 -54 538 -71 774 -45 435 47 874
231 1219 510 464 376 778 953 842 1551 22 203 10 509 -29 708 -84 435 -300
845 -615 1169 -198 203 -383 339 -636 465 -228 114 -441 182 -694 222 -94 14
-463 27 -530 18z m381 -225 c483 -47 919 -246 1268 -580 416 -398 650 -948
649 -1529 -1 -200 -17 -328 -68 -526 -188 -733 -776 -1321 -1509 -1509 -199
-51 -326 -67 -526 -68 -265 0 -491 39 -730 126 -650 237 -1146 783 -1321 1451
-42 165 -59 283 -66 461 -12 351 54 667 208 985 211 435 543 771 974 981 247
122 478 185 775 213 82 7 244 5 346 -5z"/>
<path d="M1321 3786 c-49 -18 -106 -70 -130 -119 -21 -43 -21 -51 -21 -798 0
-710 2 -756 19 -794 23 -51 65 -93 116 -116 37 -17 76 -19 533 -19 l492 0 -7
-27 c-3 -16 -30 -120 -58 -233 l-51 -205 -198 -5 c-181 -5 -199 -7 -212 -24
-21 -29 -18 -82 6 -106 20 -20 33 -20 750 -20 l731 0 24 25 c30 30 32 64 4 99
l-20 26 -193 0 -194 0 -56 225 c-31 124 -56 229 -56 235 0 7 165 10 490 10
389 0 497 3 523 13 47 20 95 64 120 111 l22 41 0 760 0 760 -24 48 c-25 52
-71 92 -128 113 -53 18 -2430 19 -2482 0z m2454 -171 l25 -24 0 -726 c0 -709
0 -725 -20 -745 -11 -11 -30 -22 -42 -25 -13 -3 -551 -4 -1195 -3 l-1172 3
-23 23 -23 23 0 332 c0 182 1 511 3 729 2 394 2 397 24 418 22 20 28 20 1210
20 l1189 0 24 -25z m-1065 -1978 c19 -78 36 -148 38 -154 3 -10 -39 -13 -182
-13 -120 0 -186 4 -186 10 0 6 16 76 36 155 l36 145 112 0 111 0 35 -143z"/>
<path d="M2755 3505 c-25 -24 -25 -26 -25 -208 l0 -184 -87 -6 c-167 -11 -317
-76 -439 -189 -40 -38 -88 -92 -106 -120 l-33 -51 -5 190 c-5 189 -5 190 -35
239 -48 78 -168 129 -209 88 -33 -32 -15 -62 45 -75 24 -6 52 -18 62 -27 46
-41 47 -51 47 -434 0 -205 4 -378 10 -398 13 -49 66 -109 114 -131 37 -17 71
-19 353 -19 l312 0 28 24 c58 50 20 172 -67 213 l-42 19 105 47 c57 26 107 47
111 47 3 0 6 -68 6 -150 0 -147 1 -152 25 -175 21 -22 33 -25 100 -25 67 0 79
3 100 25 l25 24 0 304 0 303 44 31 c24 17 55 46 69 65 51 66 57 102 57 338 0
213 0 217 -23 238 -22 21 -68 29 -100 16 -8 -3 -43 -41 -78 -85 -85 -106 -96
-106 -184 0 -36 43 -72 82 -81 85 -34 13 -75 6 -99 -19z m483 -285 c-3 -153
-5 -168 -28 -210 -80 -143 -281 -146 -362 -4 l-28 51 2 188 3 187 68 -81 68
-81 67 0 67 0 70 86 c83 102 79 110 73 -136z m-480 -233 c32 -89 137 -162 250
-173 l62 -7 -2 -271 -3 -271 -40 0 -40 0 -3 198 c-1 108 -6 197 -10 197 -5 0
-89 -36 -187 -80 -98 -44 -179 -79 -180 -77 -1 1 -7 20 -13 43 -16 56 -49 102
-100 141 -66 50 -102 42 -102 -22 0 -16 9 -26 29 -35 68 -28 101 -95 101 -205
l0 -75 76 0 c70 0 78 -2 105 -29 16 -16 29 -37 29 -46 0 -15 -27 -16 -287 -13
-318 3 -336 7 -368 68 -32 62 -11 217 46 334 63 129 159 226 291 292 87 44
162 62 258 63 l76 1 12 -33z"/>
<path d="M2928 3192 c-23 -5 -34 -48 -18 -67 31 -38 93 1 71 44 -12 22 -29 29
-53 23z"/>
<path d="M3093 3189 c-25 -9 -31 -47 -11 -67 20 -20 58 -14 67 11 16 41 -15
71 -56 56z"/>
</g>
</svg>
